<svg width="24" height="24" viewBox="0 0 24 24" fill="none" xmlns="http://www.w3.org/2000/svg">
<path d="M3.32401 13.011C3.67401 10.009 4.18601 7.758 4.66101 6.159C5.05001 4.847 5.24501 4.191 6.04301 3.596C6.84101 3.001 7.65701 3 9.28901 3H14.711C16.343 3 17.159 3 17.957 3.596C18.755 4.191 18.95 4.847 19.339 6.159C19.814 7.758 20.326 10.009 20.677 13.011C21.09 16.55 21.296 18.319 20.103 19.659C18.909 21 16.976 21 13.108 21H10.892C7.02401 21 5.09101 21 3.89701 19.66C2.70301 18.32 2.91101 16.55 3.32401 13.011Z" stroke="#59616E" stroke-width="1.5" stroke-linecap="round" stroke-linejoin="round"/>
<path d="M9 7C9 7.79565 9.31607 8.55871 9.87868 9.12132C10.4413 9.68393 11.2044 10 12 10C12.7956 10 13.5587 9.68393 14.1213 9.12132C14.6839 8.55871 15 7.79565 15 7" stroke="#59616E" stroke-width="1.5" stroke-linecap="round" stroke-linejoin="round"/>
</svg>
