<svg width="104" height="104" viewBox="0 0 104 104" fill="none" xmlns="http://www.w3.org/2000/svg">
<path d="M8.66663 13H9.56363C15.301 13 18.174 13 20.046 14.742C21.918 16.484 22.1216 19.3483 22.529 25.0727L23.6166 40.3217C24.232 48.9407 24.5396 53.248 25.8483 56.7493C27.2596 60.5354 29.534 63.9405 32.4909 66.6943C35.4478 69.4481 39.0058 71.4748 42.8826 72.6137C46.4706 73.6667 50.8126 73.6667 59.5053 73.6667C68.627 73.6667 73.2853 73.6667 76.9816 72.5487C81.0733 71.3075 84.7958 69.0764 87.8192 66.0529C90.8427 63.0295 93.0738 59.307 94.315 55.2153C94.9346 53.1657 95.212 50.8603 95.3333 47.6667M60.6666 26H23.8333M73.6666 13L95.3333 34.6667M73.6666 34.6667L95.3333 13M45.5 87.75C45.5 88.612 45.1575 89.4386 44.5481 90.0481C43.9386 90.6576 43.1119 91 42.25 91C41.388 91 40.5614 90.6576 39.9519 90.0481C39.3424 89.4386 39 88.612 39 87.75C39 86.888 39.3424 86.0614 39.9519 85.4519C40.5614 84.8424 41.388 84.5 42.25 84.5C43.1119 84.5 43.9386 84.8424 44.5481 85.4519C45.1575 86.0614 45.5 86.888 45.5 87.75ZM82.3333 87.75C82.3333 88.612 81.9909 89.4386 81.3814 90.0481C80.7719 90.6576 79.9452 91 79.0833 91C78.2213 91 77.3947 90.6576 76.7852 90.0481C76.1757 89.4386 75.8333 88.612 75.8333 87.75C75.8333 86.888 76.1757 86.0614 76.7852 85.4519C77.3947 84.8424 78.2213 84.5 79.0833 84.5C79.9452 84.5 80.7719 84.8424 81.3814 85.4519C81.9909 86.0614 82.3333 86.888 82.3333 87.75Z" stroke="#EAEDF2" stroke-width="6.5" stroke-linecap="round" stroke-linejoin="round"/>
</svg>
