<svg width="24" height="24" viewBox="0 0 24 24" fill="none" xmlns="http://www.w3.org/2000/svg">
<path d="M2 3H2.207C3.531 3 4.194 3 4.626 3.402C5.058 3.804 5.105 4.465 5.199 5.786L5.45 9.305C5.592 11.294 5.663 12.288 5.965 13.096C6.2907 13.9697 6.81555 14.7555 7.49791 15.391C8.18027 16.0265 9.00135 16.4942 9.896 16.757C10.724 17 11.726 17 13.732 17C15.837 17 16.89 17 17.742 16.742C18.6862 16.4556 19.5453 15.9407 20.243 15.243C20.9407 14.5453 21.4556 13.6862 21.742 12.742C22 11.89 22 10.843 22 8.75C22 8.052 22 7.703 21.914 7.42C21.8187 7.10517 21.6471 6.81872 21.4146 6.58602C21.1821 6.35333 20.8958 6.18158 20.581 6.086C20.297 6 19.948 6 19.25 6H5.5M16 10V13M11 10V13M10.5 20.25C10.5 20.4489 10.421 20.6397 10.2803 20.7803C10.1397 20.921 9.94891 21 9.75 21C9.55109 21 9.36032 20.921 9.21967 20.7803C9.07902 20.6397 9 20.4489 9 20.25C9 20.0511 9.07902 19.8603 9.21967 19.7197C9.36032 19.579 9.55109 19.5 9.75 19.5C9.94891 19.5 10.1397 19.579 10.2803 19.7197C10.421 19.8603 10.5 20.0511 10.5 20.25ZM19 20.25C19 20.4489 18.921 20.6397 18.7803 20.7803C18.6397 20.921 18.4489 21 18.25 21C18.0511 21 17.8603 20.921 17.7197 20.7803C17.579 20.6397 17.5 20.4489 17.5 20.25C17.5 20.0511 17.579 19.8603 17.7197 19.7197C17.8603 19.579 18.0511 19.5 18.25 19.5C18.4489 19.5 18.6397 19.579 18.7803 19.7197C18.921 19.8603 19 20.0511 19 20.25Z" stroke="#59616E" stroke-width="1.5" stroke-linecap="round" stroke-linejoin="round"/>
</svg>
