<svg width="24" height="24" viewBox="0 0 24 24" fill="none" xmlns="http://www.w3.org/2000/svg">
<path d="M12 22C6.477 22 2 17.523 2 12C2 6.477 6.477 2 12 2C16.478 2 20.226 4.943 21.5 9H19" stroke="#1E84EF" stroke-width="1.5" stroke-linecap="round" stroke-linejoin="round"/>
<path d="M12 8V12L14 14M21.955 13C21.985 12.67 22 12.3367 22 12M15 22C15.3401 21.8873 15.6739 21.7565 16 21.608M20.79 17C20.984 16.628 21.1557 16.2433 21.305 15.846M18.192 20.229C18.5373 19.9437 18.863 19.6363 19.169 19.307" stroke="#1E84EF" stroke-width="1.5" stroke-linecap="round" stroke-linejoin="round"/>
</svg>
