<svg width="24" height="24" viewBox="0 0 24 24" fill="none" xmlns="http://www.w3.org/2000/svg">
<path d="M17 10.8049C17 10.4589 17 10.2859 17.052 10.1319C17.203 9.68388 17.602 9.51088 18.002 9.32888C18.45 9.12388 18.674 9.02188 18.897 9.00388C19.149 8.98388 19.402 9.03788 19.618 9.15888C19.904 9.31888 20.104 9.62488 20.308 9.87288C21.251 11.0189 21.723 11.5919 21.895 12.2229C22.035 12.7329 22.035 13.2669 21.895 13.7759C21.644 14.6979 20.849 15.4699 20.26 16.1859C19.959 16.5509 19.808 16.7339 19.618 16.8409C19.3983 16.9627 19.1474 17.0167 18.897 16.9959C18.674 16.9779 18.45 16.8759 18.001 16.6709C17.601 16.4889 17.203 16.3159 17.052 15.8679C17 15.7139 17 15.5409 17 15.1949V10.8049ZM7.00003 10.8049C7.00003 10.3689 6.98803 9.97788 6.63603 9.67188C6.50803 9.56088 6.33803 9.48388 5.99903 9.32888C5.55003 9.12488 5.32603 9.02188 5.10303 9.00388C4.43603 8.94988 4.07703 9.40588 3.69303 9.87388C2.74903 11.0189 2.27703 11.5919 2.10403 12.2239C1.96483 12.7322 1.96483 13.2686 2.10403 13.7769C2.35603 14.6979 3.15203 15.4709 3.74003 16.1859C4.11103 16.6359 4.46603 17.0469 5.10303 16.9959C5.32603 16.9779 5.55003 16.8759 5.99903 16.6709C6.33903 16.5169 6.50803 16.4389 6.63603 16.3279C6.98803 16.0219 7.00003 15.6309 7.00003 15.1959V10.8049Z" stroke="#1E84EF" stroke-width="1.5"/>
<path d="M5 9C5 5.686 8.134 3 12 3C15.866 3 19 5.686 19 9" stroke="#1E84EF" stroke-width="1.5" stroke-linecap="square" stroke-linejoin="round"/>
<path d="M19 17V17.8C19 19.567 17.21 21 15 21H13" stroke="#1E84EF" stroke-width="1.5" stroke-linecap="round" stroke-linejoin="round"/>
</svg>
