<svg width="42" height="42" viewBox="0 0 42 42" fill="none" xmlns="http://www.w3.org/2000/svg">
<rect width="42" height="42" rx="12" fill="#F1573D" fill-opacity="0.1"/>
<path d="M30 14.98C26.67 14.65 23.32 14.48 19.98 14.48C18 14.48 16.02 14.58 14.04 14.78L12 14.98" stroke="#F1573D" stroke-width="1.5" stroke-linecap="round" stroke-linejoin="round"/>
<path d="M17.5 13.97L17.72 12.66C17.88 11.71 18 11 19.69 11H22.31C24 11 24.13 11.75 24.28 12.67L24.5 13.97" stroke="#F1573D" stroke-width="1.5" stroke-linecap="round" stroke-linejoin="round"/>
<path d="M27.85 18.1401L27.2 28.2101C27.09 29.7801 27 31.0001 24.21 31.0001H17.79C15 31.0001 14.91 29.7801 14.8 28.2101L14.15 18.1401" stroke="#F1573D" stroke-width="1.5" stroke-linecap="round" stroke-linejoin="round"/>
<path d="M19.33 25.5H22.66" stroke="#F1573D" stroke-width="1.5" stroke-linecap="round" stroke-linejoin="round"/>
<path d="M18.5 21.5H23.5" stroke="#F1573D" stroke-width="1.5" stroke-linecap="round" stroke-linejoin="round"/>
</svg>
