<svg width="34" height="34" viewBox="0 0 34 34" fill="none" xmlns="http://www.w3.org/2000/svg">
<path d="M2.83334 30.0228C3.80376 31.5103 5.05893 31.5103 6.05343 30.0228C9.25084 25.1353 12.2967 33.5375 14.5534 30.0766C17.9959 24.8916 20.4723 33.8846 23.0534 30.0214C26.4194 24.876 28.5175 33.3973 31.1667 30.5753" stroke="#1E84EF" stroke-width="2.125" stroke-linecap="round"/>
<path d="M24.9588 24.0973C25.9434 23.2417 28.2554 20.8418 28.8476 17.1288C29.3972 14.8479 29.0742 9.78051 25.3767 6.30117C22.9146 3.83901 16.3837 0.261923 9.27916 5.64101C7.85966 6.78567 5.26999 9.93492 4.97391 14.0744C4.67924 18.2139 6.47841 21.0345 7.39641 22.1423C7.84549 22.6297 8.06649 22.9144 8.53682 23.3408C8.94341 23.7092 9.11199 23.8282 9.44066 24.0945C11.4325 24.1682 15.9219 23.2403 18.9422 21.3122C19.6123 20.9977 21.3222 19.9097 22.7134 17.9773M5.91174 18.1374C7.58341 18.8061 11.8844 19.5938 16.0381 15.7348M16.3497 15.4061C18.3827 14.9783 23.5011 15.4061 26.6801 20.9764M10.9041 4.94259C9.33582 7.69659 8.97032 15.0193 11.2313 17.7436M16.4999 15.4259C15.4317 12.8249 14.6582 6.45842 17.1346 3.18592M16.3087 8.98292C18.7836 8.60892 24.8979 9.80601 29.0261 14.8763" stroke="#1E84EF" stroke-width="2.125" stroke-linecap="round" stroke-linejoin="round"/>
</svg>
