<svg width="34" height="34" viewBox="0 0 34 34" fill="none" xmlns="http://www.w3.org/2000/svg">
<path d="M21.9583 15.5833C21.9583 14.9322 21.8301 14.2874 21.5809 13.6859C21.3317 13.0843 20.9665 12.5377 20.5061 12.0773C20.0457 11.6168 19.499 11.2516 18.8975 11.0024C18.2959 10.7533 17.6511 10.625 17 10.625C16.3489 10.625 15.7041 10.7533 15.1025 11.0024C14.501 11.2516 13.9544 11.6168 13.4939 12.0773C13.0335 12.5377 12.6683 13.0843 12.4191 13.6859C12.1699 14.2874 12.0417 14.9322 12.0417 15.5833C12.0417 16.8984 12.5641 18.1595 13.4939 19.0894C14.4238 20.0193 15.685 20.5417 17 20.5417C18.315 20.5417 19.5762 20.0193 20.5061 19.0894C21.4359 18.1595 21.9583 16.8984 21.9583 15.5833Z" stroke="#1E84EF" stroke-width="2.125" stroke-linecap="round" stroke-linejoin="round"/>
<path d="M31.1667 23.375C31.1667 19.4636 27.6788 16.2917 23.375 16.2917C22.8716 16.2907 22.3914 16.2199 21.9343 16.0792M23.375 16.2917C24.3345 16.2915 25.2733 16.013 26.0777 15.4898C26.882 14.9667 27.5173 14.2214 27.9064 13.3444C28.2956 12.4674 28.4219 11.4963 28.2701 10.5488C28.1183 9.60144 27.6949 8.71843 27.0512 8.0069C26.4075 7.29537 25.5711 6.78589 24.6436 6.54025C23.7161 6.2946 22.7372 6.32335 21.8257 6.623C20.9142 6.92265 20.1093 7.48032 19.5084 8.2284C18.9076 8.97648 18.5367 9.88282 18.4408 10.8375M15.5593 10.8375C15.4568 9.82093 15.0429 8.86082 14.374 8.08848C13.7051 7.31614 12.814 6.76929 11.8225 6.52272C10.831 6.27615 9.7875 6.3419 8.83477 6.71098C7.88205 7.08005 7.0666 7.73444 6.49997 8.58463C5.93333 9.43481 5.64316 10.4393 5.66916 11.4607C5.69516 12.4821 6.03606 13.4705 6.64522 14.2907C7.25438 15.111 8.10206 15.723 9.07233 16.0432C10.0426 16.3633 11.0881 16.3759 12.0658 16.0792M24.7917 27.625C24.7917 23.7136 21.3038 20.5417 17 20.5417C12.6962 20.5417 9.20834 23.7136 9.20834 27.625" stroke="#1E84EF" stroke-width="2.125" stroke-linecap="round" stroke-linejoin="round"/>
<path d="M10.625 16.2915C6.32116 16.2915 2.83333 19.4634 2.83333 23.3748" stroke="#1E84EF" stroke-width="2.125" stroke-linecap="round" stroke-linejoin="round"/>
</svg>
