<svg width="89" height="89" viewBox="0 0 89 89" fill="none" xmlns="http://www.w3.org/2000/svg">
<path d="M3.25 44.4167C3.25 25.012 3.25 15.3053 9.27767 9.27767C15.3053 3.25 25.0077 3.25 44.4167 3.25C63.8213 3.25 73.528 3.25 79.5557 9.27767C85.5833 15.3053 85.5833 25.0077 85.5833 44.4167C85.5833 63.8213 85.5833 73.528 79.5557 79.5557C73.528 85.5833 63.8257 85.5833 44.4167 85.5833C25.012 85.5833 15.3053 85.5833 9.27767 79.5557C3.25 73.528 3.25 63.8257 3.25 44.4167Z" stroke="#EAEDF2" stroke-width="6.5" stroke-linecap="round" stroke-linejoin="round"/>
<path d="M85.5833 50.9165H64.2373C60.5887 50.9165 57.7243 53.9672 56.1123 57.1868C54.366 60.6882 50.869 63.9165 44.4167 63.9165C37.9643 63.9165 34.4673 60.6882 32.7167 57.1868C31.1133 53.9672 28.2447 50.9165 24.596 50.9165H3.25" stroke="#EAEDF2" stroke-width="6.5" stroke-linejoin="round"/>
</svg>
