<svg width="24" height="24" viewBox="0 0 24 24" fill="none" xmlns="http://www.w3.org/2000/svg">
<path d="M14.5 11C14.5 11.663 14.2366 12.2989 13.7678 12.7678C13.2989 13.2366 12.663 13.5 12 13.5C11.337 13.5 10.7011 13.2366 10.2322 12.7678C9.76339 12.2989 9.5 11.663 9.5 11C9.5 10.337 9.76339 9.70107 10.2322 9.23223C10.7011 8.76339 11.337 8.5 12 8.5C12.663 8.5 13.2989 8.76339 13.7678 9.23223C14.2366 9.70107 14.5 10.337 14.5 11Z" stroke="#2AD730" stroke-width="1.5" stroke-linecap="round" stroke-linejoin="round"/>
<path d="M22 13V5.927C22 5.359 21.676 4.845 21.133 4.677C20.19 4.383 18.479 4 16 4C11.42 4 10.197 5.677 3.878 4.424C2.921 4.234 2 4.945 2 5.92V15.937C2 16.625 2.473 17.23 3.145 17.378C8.39 18.535 10.332 17.796 13 17.361" stroke="#2AD730" stroke-width="1.5" stroke-linecap="round" stroke-linejoin="round"/>
<path d="M2 8C3.951 8 5.705 6.405 5.929 4.754M18.5 4.5C18.5 6.54 20.265 8.469 22 8.469M6 17.496C6 16.4351 5.57857 15.4177 4.82843 14.6676C4.07828 13.9174 3.06087 13.496 2 13.496M19 14V20M16 17H22" stroke="#2AD730" stroke-width="1.5" stroke-linecap="round" stroke-linejoin="round"/>
</svg>
