<svg width="22" height="22" viewBox="0 0 22 22" fill="none" xmlns="http://www.w3.org/2000/svg">
<path d="M0.75 10.75C0.75 11.802 0.93 12.812 1.262 13.75M1.262 13.75H9.75M1.262 13.75C1.88254 15.5051 3.03207 17.0247 4.55224 18.0993C6.0724 19.1738 7.88839 19.7506 9.75 19.75C8.206 19.75 6.934 16.25 6.768 11.75M11.764 7.75H20.252M20.252 7.75C19.6315 5.99485 18.4819 4.47532 16.9618 3.40075C15.4416 2.32617 13.6256 1.74944 11.764 1.75C13.364 1.75 14.673 5.512 14.759 10.25M20.252 7.75C20.53 8.539 20.702 9.378 20.75 10.25" stroke="#1E84EF" stroke-width="1.5" stroke-linecap="round" stroke-linejoin="round"/>
<path d="M0.75 4.047C0.75 2.95 0.75 2.4 0.937 1.974C1.137 1.522 1.479 1.159 1.905 0.949C2.307 0.75 2.825 0.75 3.86 0.75H4.75C6.636 0.75 7.578 0.75 8.164 1.37C8.75 1.993 8.75 2.99 8.75 4.99V7.249C8.75 8.12 8.75 8.556 8.486 8.706C8.222 8.856 7.88 8.614 7.196 8.13L7.091 8.057C6.591 7.703 6.341 7.527 6.057 7.436C5.774 7.345 5.473 7.345 4.872 7.345H3.862C2.825 7.345 2.307 7.345 1.905 7.146C1.47182 6.92882 1.12907 6.56588 0.937 6.121C0.75 5.695 0.75 5.146 0.75 4.047ZM20.75 16.047C20.75 14.949 20.75 14.4 20.563 13.974C20.3709 13.5291 20.0282 13.1662 19.595 12.949C19.193 12.75 18.675 12.75 17.64 12.75H16.75C14.864 12.75 13.922 12.75 13.336 13.37C12.75 13.993 12.75 14.99 12.75 16.99V19.249C12.75 20.12 12.75 20.556 13.014 20.706C13.278 20.856 13.62 20.614 14.304 20.13L14.409 20.057C14.909 19.703 15.159 19.527 15.443 19.436C15.726 19.345 16.027 19.345 16.628 19.345H17.638C18.675 19.345 19.193 19.345 19.595 19.146C20.021 18.936 20.364 18.573 20.563 18.121C20.75 17.695 20.75 17.146 20.75 16.047Z" stroke="#1E84EF" stroke-width="1.5"/>
</svg>
