<svg width="24" height="24" viewBox="0 0 24 24" fill="none" xmlns="http://www.w3.org/2000/svg">
<path d="M13.618 21.367C13.1782 21.7752 12.6 22.0014 12 22C11.4003 22.0012 10.8225 21.775 10.383 21.367C6.412 17.626 1.09 13.447 3.685 7.38C5.09 4.1 8.458 2 12.001 2C15.544 2 18.913 4.1 20.316 7.38C22.908 13.44 17.599 17.639 13.618 21.367Z" stroke="#1E84EF" stroke-width="1.5"/>
<path d="M15.5 11C15.5 11.4596 15.4095 11.9148 15.2336 12.3394C15.0577 12.764 14.7999 13.1499 14.4749 13.4749C14.1499 13.7999 13.764 14.0577 13.3394 14.2336C12.9147 14.4095 12.4596 14.5 12 14.5C11.5404 14.5 11.0852 14.4095 10.6606 14.2336C10.236 14.0577 9.85012 13.7999 9.52512 13.4749C9.20011 13.1499 8.94231 12.764 8.76641 12.3394C8.59052 11.9148 8.49999 11.4596 8.49999 11C8.49999 10.0717 8.86874 9.1815 9.52512 8.52513C10.1815 7.86875 11.0717 7.5 12 7.5C12.9283 7.5 13.8185 7.86875 14.4749 8.52513C15.1312 9.1815 15.5 10.0717 15.5 11Z" stroke="#1E84EF" stroke-width="1.5"/>
</svg>
