<svg width="24" height="24" viewBox="0 0 24 24" fill="none" xmlns="http://www.w3.org/2000/svg">
<path d="M6.99999 8.5L9.94199 10.24C11.657 11.254 12.342 11.254 14.058 10.24L17 8.5" stroke="#BAC0CA" stroke-width="1.5" stroke-linecap="round" stroke-linejoin="round"/>
<path d="M2.016 13.476C2.081 16.541 2.11399 18.074 3.24499 19.209C4.37599 20.345 5.95 20.384 9.099 20.463C11.039 20.513 12.961 20.513 14.901 20.463C18.05 20.384 19.624 20.345 20.755 19.209C21.886 18.074 21.919 16.541 21.985 13.476C22.005 12.49 22.005 11.51 21.985 10.524C21.919 7.45899 21.886 5.92599 20.755 4.79099C19.624 3.65499 18.05 3.61599 14.901 3.53699C12.9673 3.4882 11.0327 3.4882 9.099 3.53699C5.95 3.61599 4.37599 3.65499 3.24499 4.79099C2.11399 5.92599 2.081 7.45899 2.015 10.524C1.99394 11.5079 1.99494 12.4921 2.016 13.476Z" stroke="#BAC0CA" stroke-width="1.5" stroke-linejoin="round"/>
</svg>
