<svg width="200" height="200" viewBox="0 0 200 200" fill="none" xmlns="http://www.w3.org/2000/svg">
<path d="M9.37492 75.0004H18.7499V140.625C18.7499 141.454 19.0792 142.249 19.6652 142.835C20.2513 143.421 21.0461 143.75 21.8749 143.75H58.6562L61.9999 147.125C61.6041 148 61.2291 148.907 60.8749 149.844H56.2499C55.4211 149.844 54.6263 150.173 54.0402 150.759C53.4542 151.346 53.1249 152.14 53.1249 152.969V165.469C53.1249 166.298 53.4542 167.093 54.0402 167.679C54.6263 168.265 55.4211 168.594 56.2499 168.594H60.9999C61.3333 169.532 61.7083 170.438 62.1249 171.313L58.7812 175C58.4859 175.29 58.251 175.635 58.0901 176.016C57.9291 176.397 57.8454 176.806 57.8437 177.219C57.8554 178.043 58.1924 178.83 58.7812 179.407L67.6249 188.25C68.2104 188.832 69.0025 189.159 69.828 189.159C70.6536 189.159 71.4457 188.832 72.0312 188.25L75.4062 184.907C76.2812 185.323 77.1874 185.698 78.1249 186.032V190.625C78.1249 191.454 78.4542 192.249 79.0402 192.835C79.6263 193.421 80.4211 193.75 81.2499 193.75H93.7499C94.5787 193.75 95.3736 193.421 95.9596 192.835C96.5457 192.249 96.8749 191.454 96.8749 190.625V185.875C97.8124 185.542 98.7187 185.167 99.5937 184.75L103.125 188.094C103.71 188.676 104.502 189.003 105.328 189.003C106.154 189.003 106.946 188.676 107.531 188.094L116.375 179.25C119.169 180.688 122.1 181.839 125.125 182.688V190.625C125.125 191.454 125.454 192.249 126.04 192.835C126.626 193.421 127.421 193.75 128.25 193.75H147C147.829 193.75 148.624 193.421 149.21 192.835C149.796 192.249 150.125 191.454 150.125 190.625V182.657C153.786 181.578 157.302 180.056 160.594 178.125L166.219 183.782C166.509 184.075 166.855 184.307 167.236 184.466C167.616 184.624 168.025 184.706 168.437 184.706C168.85 184.706 169.258 184.624 169.639 184.466C170.02 184.307 170.366 184.075 170.656 183.782L183.906 170.532C184.199 170.241 184.432 169.896 184.59 169.515C184.749 169.134 184.831 168.725 184.831 168.313C184.831 167.9 184.749 167.492 184.59 167.111C184.432 166.73 184.199 166.385 183.906 166.094L178.125 160.594C180.065 157.263 181.587 153.705 182.656 150H190.625C191.454 150 192.249 149.671 192.835 149.085C193.421 148.499 193.75 147.704 193.75 146.875V128.125C193.75 127.297 193.421 126.502 192.835 125.916C192.249 125.33 191.454 125 190.625 125H182.656C181.587 121.296 180.065 117.738 178.125 114.407L183.781 108.782C184.074 108.491 184.307 108.146 184.465 107.765C184.624 107.384 184.706 106.975 184.706 106.563C184.706 106.15 184.624 105.742 184.465 105.361C184.307 104.98 184.074 104.635 183.781 104.344L170.531 91.0942C170.241 90.8013 169.895 90.5688 169.514 90.4101C169.133 90.2515 168.725 90.1698 168.312 90.1698C167.9 90.1698 167.491 90.2515 167.111 90.4101C166.73 90.5688 166.384 90.8013 166.094 91.0942L160.594 96.8754C157.262 94.9351 153.704 93.4132 150 92.3442V84.3754C150 83.5466 149.671 82.7518 149.085 82.1657C148.499 81.5797 147.704 81.2504 146.875 81.2504H137.5V75.0004H146.875C147.505 74.9988 148.12 74.8067 148.639 74.4495C149.158 74.0922 149.557 73.5864 149.783 72.9984C150.009 72.4104 150.053 71.7677 149.908 71.1546C149.762 70.5415 149.435 69.9867 148.969 69.5629L80.2187 7.06293C79.6445 6.54468 78.8984 6.25781 78.1249 6.25781C77.3514 6.25781 76.6054 6.54468 76.0312 7.06293L7.28117 69.5629C6.81492 69.9867 6.48766 70.5415 6.34233 71.1546C6.19699 71.7677 6.24038 72.4104 6.46678 72.9984C6.69319 73.5864 7.09205 74.0922 7.61103 74.4495C8.13 74.8067 8.74486 74.9988 9.37492 75.0004ZM108.656 164.844C108.158 166.825 107.368 168.721 106.312 170.469C105.967 171.066 105.828 171.761 105.919 172.445C106.009 173.129 106.323 173.764 106.812 174.25L109.594 177.063L105.187 181.469L102.375 178.688C101.896 178.189 101.265 177.863 100.58 177.761C99.896 177.659 99.1973 177.787 98.5937 178.125C96.8373 179.158 94.9435 179.937 92.9687 180.438C92.2811 180.615 91.6744 181.021 91.2484 181.589C90.8223 182.157 90.6025 182.853 90.6249 183.563V187.5H84.3749V183.563C84.3974 182.853 84.1775 182.157 83.7515 181.589C83.3255 181.021 82.7187 180.615 82.0312 180.438C80.0563 179.937 78.1625 179.158 76.4062 178.125C75.8124 177.776 75.1197 177.632 74.4358 177.717C73.752 177.802 73.1153 178.11 72.6249 178.594L69.8124 181.375L65.4062 176.969L68.1874 174.157C68.6652 173.684 68.9779 173.07 69.0792 172.406C69.1805 171.742 69.0651 171.063 68.7499 170.469C67.6945 168.721 66.9046 166.825 66.4062 164.844C66.229 164.157 65.823 163.55 65.255 163.124C64.687 162.698 63.9908 162.478 63.2812 162.5H59.3749V156.25H63.3124C64.0221 156.273 64.7182 156.053 65.2863 155.627C65.8543 155.201 66.2603 154.594 66.4374 153.907C66.9358 151.926 67.7257 150.03 68.7812 148.282C69.1269 147.685 69.2654 146.99 69.175 146.306C69.0845 145.622 68.7702 144.987 68.2812 144.5L65.4999 141.688L69.9062 137.282L72.7187 140.063C73.2091 140.547 73.8457 140.855 74.5296 140.94C75.2135 141.025 75.9062 140.881 76.4999 140.532C78.2563 139.499 80.1501 138.72 82.1249 138.219C82.8125 138.042 83.4192 137.636 83.8452 137.068C84.2712 136.5 84.4911 135.804 84.4687 135.094V131.25H90.7187V135.188C90.6962 135.898 90.9161 136.594 91.3421 137.162C91.7681 137.73 92.3749 138.136 93.0624 138.313C95.0373 138.814 96.9311 139.593 98.6874 140.625C99.2812 140.975 99.9739 141.119 100.658 141.034C101.342 140.949 101.978 140.641 102.469 140.157L105.281 137.375L109.687 141.782L106.906 144.594C106.413 145.055 106.083 145.664 105.964 146.329C105.846 146.993 105.946 147.679 106.25 148.282C107.305 150.03 108.095 151.926 108.594 153.907C108.771 154.594 109.177 155.201 109.745 155.627C110.313 156.053 111.009 156.273 111.719 156.25H115.625V162.5H111.687C110.994 162.499 110.319 162.729 109.77 163.153C109.222 163.578 108.83 164.172 108.656 164.844ZM116.219 139.5L115.625 138.969V137.5C115.589 132.424 117.321 127.492 120.522 123.552C123.724 119.612 128.197 116.908 133.173 115.904C138.15 114.9 143.321 115.658 147.8 118.049C152.279 120.44 155.787 124.314 157.722 129.007C159.658 133.701 159.901 138.922 158.409 143.775C156.917 148.628 153.783 152.81 149.545 155.606C145.308 158.402 140.229 159.637 135.181 159.099C130.132 158.56 125.428 156.283 121.875 152.657C121.762 151.912 121.383 151.232 120.809 150.744C120.235 150.256 119.504 149.992 118.75 150H114C113.667 149.063 113.292 148.157 112.875 147.282L116.219 143.907C116.514 143.617 116.749 143.272 116.91 142.891C117.071 142.51 117.154 142.101 117.156 141.688C117.144 140.864 116.807 140.077 116.219 139.5ZM143.75 87.5004V94.7817C143.734 95.5084 143.971 96.218 144.422 96.7884C144.873 97.3588 145.508 97.7542 146.219 97.9067C150.895 98.8972 155.353 100.729 159.375 103.313C159.974 103.702 160.689 103.874 161.4 103.8C162.111 103.726 162.775 103.411 163.281 102.907L168.437 97.7192L177.281 106.563L172.094 111.719C171.59 112.226 171.274 112.89 171.2 113.601C171.126 114.311 171.298 115.026 171.687 115.625C174.268 119.656 176.119 124.11 177.156 128.782C177.309 129.492 177.704 130.128 178.274 130.578C178.845 131.029 179.554 131.267 180.281 131.25H187.5V143.75H180.219C179.492 143.734 178.782 143.972 178.212 144.423C177.642 144.873 177.246 145.508 177.094 146.219C176.076 150.887 174.246 155.34 171.687 159.375C171.298 159.975 171.126 160.69 171.2 161.4C171.274 162.111 171.59 162.775 172.094 163.282L177.281 168.438L168.437 177.282L163.281 172.094C162.775 171.59 162.111 171.275 161.4 171.201C160.689 171.127 159.974 171.299 159.375 171.688C155.351 174.281 150.895 176.133 146.219 177.157C145.508 177.309 144.873 177.705 144.422 178.275C143.971 178.845 143.734 179.555 143.75 180.282V187.5H131.25V180.219C131.266 179.492 131.028 178.783 130.578 178.212C130.127 177.642 129.492 177.247 128.781 177.094C124.109 176.09 119.653 174.259 115.625 171.688C115.223 171.438 114.769 171.283 114.298 171.234C113.827 171.186 113.351 171.245 112.906 171.407C113.312 170.532 113.656 169.657 114 168.75H118.75C119.579 168.75 120.374 168.421 120.96 167.835C121.546 167.249 121.875 166.454 121.875 165.625V160.844C126.924 164.233 132.935 165.895 139.008 165.58C145.081 165.264 150.888 162.99 155.559 159.096C160.23 155.202 163.513 149.9 164.916 143.983C166.319 138.066 165.767 131.854 163.342 126.277C160.917 120.701 156.751 116.06 151.466 113.051C146.182 110.043 140.064 108.828 134.031 109.588C127.998 110.349 122.374 113.045 118.002 117.272C113.63 121.498 110.746 127.028 109.781 133.032L107.375 130.657C106.789 130.075 105.997 129.748 105.172 129.748C104.346 129.748 103.554 130.075 102.969 130.657L99.5937 134C98.7187 133.584 97.8124 133.209 96.8749 132.875V130.407C97.358 129.978 97.6964 129.41 97.8437 128.782C98.8811 124.11 100.732 119.656 103.312 115.625C103.702 115.026 103.874 114.311 103.8 113.601C103.726 112.89 103.41 112.226 102.906 111.719L97.7187 106.563L106.562 97.7192L111.719 102.907C112.225 103.411 112.889 103.726 113.6 103.8C114.311 103.874 115.026 103.702 115.625 103.313C119.642 100.707 124.1 98.8539 128.781 97.8442C129.492 97.6917 130.127 97.2963 130.578 96.7259C131.028 96.1555 131.266 95.4459 131.25 94.7192V87.5004H143.75ZM78.1249 13.5942L138.781 68.7504H134.375C133.546 68.7504 132.751 69.0797 132.165 69.6657C131.579 70.2518 131.25 71.0466 131.25 71.8754V81.2504H128.125C127.296 81.2504 126.501 81.5797 125.915 82.1657C125.329 82.7518 125 83.5466 125 84.3754V92.3442C121.296 93.4132 117.738 94.9351 114.406 96.8754L108.781 91.2192C108.491 90.9263 108.145 90.6938 107.764 90.5351C107.383 90.3765 106.975 90.2948 106.562 90.2948C106.15 90.2948 105.741 90.3765 105.361 90.5351C104.98 90.6938 104.634 90.9263 104.344 91.2192L103.125 92.4692V78.1254C103.125 77.2966 102.796 76.5018 102.21 75.9157C101.624 75.3297 100.829 75.0004 99.9999 75.0004H56.2499C55.4211 75.0004 54.6263 75.3297 54.0402 75.9157C53.4542 76.5018 53.1249 77.2966 53.1249 78.1254V125H59.3749V81.2504H96.8749V98.5942L91.0937 104.344C90.8008 104.635 90.5683 104.98 90.4096 105.361C90.251 105.742 90.1693 106.15 90.1693 106.563C90.1693 106.975 90.251 107.384 90.4096 107.765C90.5683 108.146 90.8008 108.491 91.0937 108.782L96.8749 114.407C94.9313 117.733 93.4192 121.292 92.3749 125H81.2499C80.4211 125 79.6263 125.33 79.0402 125.916C78.4542 126.502 78.1249 127.297 78.1249 128.125V132.875C77.1874 133.209 76.2812 133.584 75.4062 134L72.0312 130.657C71.4457 130.075 70.6536 129.748 69.828 129.748C69.0025 129.748 68.2104 130.075 67.6249 130.657L60.7499 137.5H59.3749V131.25H53.1249V137.5H24.9999V71.8754C24.9999 71.0466 24.6707 70.2518 24.0846 69.6657C23.4986 69.0797 22.7037 68.7504 21.8749 68.7504H17.4687L78.1249 13.5942Z" fill="#D4AF37"/>
<path d="M87.5 143.75C84.4097 143.75 81.3887 144.666 78.8192 146.383C76.2497 148.1 74.247 150.54 73.0644 153.396C71.8818 156.251 71.5723 159.392 72.1752 162.423C72.7781 165.454 74.2663 168.238 76.4515 170.424C78.6367 172.609 81.4208 174.097 84.4517 174.7C87.4827 175.303 90.6243 174.993 93.4794 173.811C96.3345 172.628 98.7748 170.625 100.492 168.056C102.209 165.486 103.125 162.465 103.125 159.375C103.125 155.231 101.479 151.257 98.5485 148.326C95.6183 145.396 91.644 143.75 87.5 143.75ZM87.5 168.75C85.6458 168.75 83.8333 168.2 82.2915 167.17C80.7498 166.14 79.5482 164.676 78.8386 162.963C78.1291 161.25 77.9434 159.365 78.3051 157.546C78.6669 155.727 79.5598 154.057 80.8709 152.746C82.182 151.435 83.8525 150.542 85.671 150.18C87.4896 149.818 89.3746 150.004 91.0877 150.714C92.8007 151.423 94.2649 152.625 95.295 154.167C96.3252 155.708 96.875 157.521 96.875 159.375C96.875 161.861 95.8873 164.246 94.1291 166.004C92.371 167.762 89.9864 168.75 87.5 168.75Z" fill="#FFE9AA"/>
</svg>
