<svg width="22" height="20" viewBox="0 0 22 20" fill="none" xmlns="http://www.w3.org/2000/svg">
<path d="M13.25 11.75C13.25 12.413 12.9866 13.0489 12.5178 13.5178C12.0489 13.9866 11.413 14.25 10.75 14.25C10.087 14.25 9.45107 13.9866 8.98223 13.5178C8.51339 13.0489 8.25 12.413 8.25 11.75C8.25 11.087 8.51339 10.4511 8.98223 9.98223C9.45107 9.51339 10.087 9.25 10.75 9.25C11.413 9.25 12.0489 9.51339 12.5178 9.98223C12.9866 10.4511 13.25 11.087 13.25 11.75Z" stroke="#59616E" stroke-width="1.5" stroke-linecap="round" stroke-linejoin="round"/>
<path d="M6.75002 5.63893C5.63002 5.63293 4.31002 5.50693 2.62802 5.17393C1.67102 4.98393 0.750019 5.69493 0.750019 6.67093V16.6889C0.74834 17.0236 0.860899 17.3488 1.06909 17.6108C1.27728 17.8728 1.56864 18.0559 1.89502 18.1299C8.86002 19.6659 9.99902 17.8599 14.75 17.8599C16.26 17.8599 17.486 18.0029 18.426 18.1799C19.522 18.3869 20.75 17.5479 20.75 16.4329V6.65893C20.75 6.08993 20.426 5.57593 19.883 5.40793C19.073 5.15693 17.695 4.83793 15.75 4.75293" stroke="#59616E" stroke-width="1.5" stroke-linecap="round" stroke-linejoin="round"/>
<path d="M0.75 8.75C2.701 8.75 4.455 7.155 4.679 5.504M17.25 5.25C17.25 7.29 19.015 9.219 20.75 9.219M20.75 14.75C18.85 14.75 17.01 16.06 16.852 17.848M4.75 18.246C4.75 17.1851 4.32857 16.1677 3.57843 15.4176C2.82828 14.6674 1.81087 14.246 0.75 14.246M8.25 3.25C8.25 3.25 10.05 0.75 10.75 0.75M10.75 0.75C11.45 0.75 13.25 3.25 13.25 3.25M10.75 0.75V6.25" stroke="#59616E" stroke-width="1.5" stroke-linecap="round" stroke-linejoin="round"/>
</svg>
