<svg width="24" height="24" viewBox="0 0 24 24" fill="none" xmlns="http://www.w3.org/2000/svg">
<path d="M12 18C15.3137 18 18 15.3137 18 12C18 8.68629 15.3137 6 12 6C8.68629 6 6 8.68629 6 12C6 15.3137 8.68629 18 12 18Z" stroke="#59616E" stroke-width="1.5"/>
<path d="M8 22L10.684 14.352C11.234 12.784 11.51 12 12 12C12.49 12 12.765 12.784 13.316 14.352L16 22" stroke="#59616E" stroke-width="1.5" stroke-linecap="round" stroke-linejoin="round"/>
<path d="M14 4C14 4.53043 13.7893 5.03914 13.4142 5.41421C13.0391 5.78929 12.5304 6 12 6C11.4696 6 10.9609 5.78929 10.5858 5.41421C10.2107 5.03914 10 4.53043 10 4C10 3.46957 10.2107 2.96086 10.5858 2.58579C10.9609 2.21071 11.4696 2 12 2C12.5304 2 13.0391 2.21071 13.4142 2.58579C13.7893 2.96086 14 3.46957 14 4ZM19 10C18.4696 10 17.9609 9.78929 17.5858 9.41421C17.2107 9.03914 17 8.53043 17 8C17 7.46957 17.2107 6.96086 17.5858 6.58579C17.9609 6.21071 18.4696 6 19 6C19.5304 6 20.0391 6.21071 20.4142 6.58579C20.7893 6.96086 21 7.46957 21 8C21 8.53043 20.7893 9.03914 20.4142 9.41421C20.0391 9.78929 19.5304 10 19 10ZM7 16C7 16.5304 6.78929 17.0391 6.41421 17.4142C6.03914 17.7893 5.53043 18 5 18C4.46957 18 3.96086 17.7893 3.58579 17.4142C3.21071 17.0391 3 16.5304 3 16C3 15.4696 3.21071 14.9609 3.58579 14.5858C3.96086 14.2107 4.46957 14 5 14C5.53043 14 6.03914 14.2107 6.41421 14.5858C6.78929 14.9609 7 15.4696 7 16ZM7 7.75C7 8.28043 6.78929 8.78914 6.41421 9.16421C6.03914 9.53929 5.53043 9.75 5 9.75C4.46957 9.75 3.96086 9.53929 3.58579 9.16421C3.21071 8.78914 3 8.28043 3 7.75C3 7.21957 3.21071 6.71086 3.58579 6.33579C3.96086 5.96071 4.46957 5.75 5 5.75C5.53043 5.75 6.03914 5.96071 6.41421 6.33579C6.78929 6.71086 7 7.21957 7 7.75ZM21 16C21 16.5304 20.7893 17.0391 20.4142 17.4142C20.0391 17.7893 19.5304 18 19 18C18.4696 18 17.9609 17.7893 17.5858 17.4142C17.2107 17.0391 17 16.5304 17 16C17 15.4696 17.2107 14.9609 17.5858 14.5858C17.9609 14.2107 18.4696 14 19 14C19.5304 14 20.0391 14.2107 20.4142 14.5858C20.7893 14.9609 21 15.4696 21 16Z" stroke="#59616E" stroke-width="1.5"/>
</svg>
