<svg width="22" height="22" viewBox="0 0 22 22" fill="none" xmlns="http://www.w3.org/2000/svg">
<path d="M20.75 10.75C20.75 16.273 16.273 20.75 10.75 20.75C5.227 20.75 0.75 16.273 0.75 10.75C0.75 5.227 5.227 0.75 10.75 0.75C16.273 0.75 20.75 5.227 20.75 10.75Z" stroke="#1E84EF" stroke-width="1.5"/>
<path d="M13.5 8.25C13.5 8.97935 13.2103 9.67882 12.6945 10.1945C12.1788 10.7103 11.4793 11 10.75 11C10.0207 11 9.32118 10.7103 8.80546 10.1945C8.28973 9.67882 8 8.97935 8 8.25C8 7.52065 8.28973 6.82118 8.80546 6.30546C9.32118 5.78973 10.0207 5.5 10.75 5.5C11.4793 5.5 12.1788 5.78973 12.6945 6.30546C13.2103 6.82118 13.5 7.52065 13.5 8.25Z" stroke="#1E84EF" stroke-width="1.5"/>
<path d="M4.25 17.75L4.81 16.77C5.2473 16.0044 5.87926 15.3681 6.6418 14.9256C7.40434 14.483 8.27034 14.2499 9.152 14.25H12.348C13.2295 14.2501 14.0953 14.4833 14.8576 14.9258C15.62 15.3684 16.2518 16.0046 16.689 16.77L17.249 17.75" stroke="#1E84EF" stroke-width="1.5" stroke-linecap="round" stroke-linejoin="round"/>
</svg>
