<svg width="24" height="24" viewBox="0 0 24 24" fill="none" xmlns="http://www.w3.org/2000/svg">
<path d="M3 6C3 4.586 3 3.879 3.44 3.44C3.878 3 4.585 3 6 3C7.415 3 8.121 3 8.56 3.44C9 3.878 9 4.585 9 6C9 7.415 9 8.121 8.56 8.56C8.122 9 7.415 9 6 9C4.585 9 3.879 9 3.44 8.56C3 8.122 3 7.415 3 6ZM3 18C3 16.586 3 15.879 3.44 15.44C3.878 15 4.585 15 6 15C7.415 15 8.121 15 8.56 15.44C9 15.878 9 16.585 9 18C9 19.415 9 20.121 8.56 20.56C8.122 21 7.415 21 6 21C4.585 21 3.879 21 3.44 20.56C3 20.122 3 19.415 3 18Z" stroke="white" stroke-width="1.5"/>
<path d="M3 12H9M12 3V8" stroke="white" stroke-width="1.5" stroke-linecap="round" stroke-linejoin="round"/>
<path d="M15 6C15 4.586 15 3.879 15.44 3.44C15.878 3 16.585 3 18 3C19.415 3 20.121 3 20.56 3.44C21 3.878 21 4.585 21 6C21 7.415 21 8.121 20.56 8.56C20.122 9 19.415 9 18 9C16.585 9 15.879 9 15.44 8.56C15 8.122 15 7.415 15 6Z" stroke="white" stroke-width="1.5"/>
<path d="M21 12H15C13.586 12 12.879 12 12.44 12.44C12 12.878 12 13.585 12 15M12 17.77V20.538M15 15V16.5C15 17.946 15.784 18 17 18C17.2652 18 17.5196 18.1054 17.7071 18.2929C17.8946 18.4804 18 18.7348 18 19M16 21H15M18 15C19.414 15 20.121 15 20.56 15.44C20.999 15.88 21 16.588 21 18.004C21 19.42 21 20.129 20.56 20.569C20.24 20.889 19.777 20.977 19 21" stroke="white" stroke-width="1.5" stroke-linecap="round"/>
</svg>
