<svg width="24" height="24" viewBox="0 0 24 24" fill="none" xmlns="http://www.w3.org/2000/svg">
<path d="M15 9.99998L4 21.001M18 3.00098L15 6.00098C14.455 6.54598 14.182 6.81898 14.036 7.11298C13.8992 7.38901 13.8281 7.69291 13.8281 8.00098C13.8281 8.30904 13.8992 8.61294 14.036 8.88898C14.182 9.18298 14.455 9.45598 15 10.001C15.545 10.546 15.818 10.819 16.112 10.965C16.388 11.1018 16.6919 11.1729 17 11.1729C17.3081 11.1729 17.612 11.1018 17.888 10.965C18.182 10.819 18.455 10.546 19 10.001L22 7.00098M20 4.99898L17 7.99898" stroke="#59616E" stroke-width="1.5" stroke-linecap="round" stroke-linejoin="round"/>
<path d="M8.845 9.84602C7.48 11.211 5.608 11.552 3.901 9.84602C2.195 8.13902 1.301 5.03202 2.666 3.66602C4.031 2.30202 7.138 3.19602 8.845 4.90202C10.551 6.60902 10.21 8.48102 8.845 9.84602ZM8.845 9.84602L20 21" stroke="#59616E" stroke-width="1.5" stroke-linecap="round"/>
</svg>
