<svg width="24" height="24" viewBox="0 0 24 24" fill="none" xmlns="http://www.w3.org/2000/svg">
<path d="M21.3181 7.14084L20.8241 6.28484C20.4511 5.63684 20.2641 5.31284 19.9461 5.18384C19.6291 5.05384 19.2701 5.15684 18.5511 5.35984L17.3311 5.70384C16.8721 5.80984 16.3911 5.74984 15.9731 5.53384L15.6361 5.33984C15.277 5.10975 15.0009 4.77093 14.8481 4.37284L14.5141 3.37484C14.2941 2.71484 14.1841 2.38484 13.9231 2.19684C13.6621 2.00684 13.3141 2.00684 12.6201 2.00684H11.5051C10.8111 2.00684 10.4641 2.00684 10.2021 2.19684C9.94105 2.38484 9.83205 2.71484 9.61205 3.37484L9.27805 4.37284C9.12493 4.77108 8.84847 5.10991 8.48905 5.33984L8.15205 5.53484C7.73405 5.74984 7.25205 5.80984 6.79405 5.70484L5.57405 5.35984C4.85505 5.15684 4.49605 5.05484 4.17905 5.18384C3.86105 5.31284 3.67405 5.63684 3.30105 6.28384L2.80805 7.14084C2.45805 7.74884 2.28305 8.05184 2.31705 8.37484C2.35105 8.69884 2.58505 8.95884 3.05305 9.47984L4.08405 10.6328C4.33605 10.9518 4.51505 11.5078 4.51505 12.0078C4.51505 12.5078 4.33605 13.0638 4.08505 13.3828L3.05305 14.5348C2.58505 15.0558 2.35105 15.3168 2.31705 15.6398C2.28305 15.9628 2.45705 16.2668 2.80705 16.8738L3.30105 17.7308C3.67405 18.3778 3.86105 18.7018 4.17905 18.8308C4.49705 18.9598 4.85505 18.8588 5.57405 18.6548L6.79405 18.3108C7.25294 18.2058 7.73418 18.266 8.15305 18.4808L8.48905 18.6748C8.84905 18.9048 9.12505 19.2448 9.27705 19.6428L9.61105 20.6398C9.83105 21.2998 9.94105 21.6298 10.2021 21.8198C10.4641 22.0078 10.8111 22.0078 11.5051 22.0078H12.6201C13.3141 22.0078 13.6621 22.0078 13.9231 21.8188C14.1841 21.6298 14.2941 21.2998 14.5131 20.6398L14.8481 19.6428C15.0001 19.2438 15.2761 18.9048 15.6361 18.6748L15.9721 18.4808C16.3921 18.2658 16.8721 18.2048 17.3321 18.3108L18.5521 18.6548C19.2701 18.8588 19.6291 18.9608 19.9461 18.8318C20.2641 18.7018 20.4511 18.3778 20.8241 17.7308L21.3171 16.8738C21.6671 16.2668 21.8421 15.9638 21.8081 15.6398C21.7741 15.3158 21.5401 15.0558 21.0721 14.5348L20.0411 13.3828C19.7891 13.0628 19.6101 12.5078 19.6101 12.0078C19.6101 11.5078 19.7891 10.9518 20.0401 10.6328L21.0721 9.47984C21.5401 8.95984 21.7741 8.69884 21.8081 8.37484C21.8421 8.05084 21.6681 7.74884 21.3181 7.14084Z" stroke="#1E84EF" stroke-width="1.5" stroke-linecap="round"/>
<path d="M15.52 12C15.52 12.9283 15.1513 13.8185 14.4949 14.4749C13.8385 15.1313 12.9483 15.5 12.02 15.5C11.0918 15.5 10.2015 15.1313 9.54515 14.4749C8.88877 13.8185 8.52002 12.9283 8.52002 12C8.52002 11.0717 8.88877 10.1815 9.54515 9.52513C10.2015 8.86875 11.0918 8.5 12.02 8.5C12.9483 8.5 13.8385 8.86875 14.4949 9.52513C15.1513 10.1815 15.52 11.0717 15.52 12Z" stroke="#1E84EF" stroke-width="1.5"/>
</svg>
