<svg width="24" height="24" viewBox="0 0 24 24" fill="none" xmlns="http://www.w3.org/2000/svg">
<path d="M18.709 3.495C16.817 2.554 14.5 2 12 2C9.5 2 7.184 2.554 5.291 3.495C4.363 3.957 3.899 4.188 3.45 4.914C3.001 5.64 3 6.342 3 7.748V11.238C3 16.921 7.542 20.08 10.173 21.434C10.907 21.811 11.273 22 12 22C12.727 22 13.093 21.811 13.827 21.434C16.457 20.08 21 16.92 21 11.237V7.748C21 6.342 21 5.64 20.55 4.914C20.1 4.188 19.637 3.957 18.709 3.495Z" stroke="#1E84EF" stroke-width="1.5" stroke-linecap="round" stroke-linejoin="round"/>
<path d="M15 11C15 11.7956 14.6839 12.5587 14.1213 13.1213C13.5587 13.6839 12.7956 14 12 14C11.2044 14 10.4413 13.6839 9.87868 13.1213C9.31607 12.5587 9 11.7956 9 11C9 10.2044 9.31607 9.44129 9.87868 8.87868C10.4413 8.31607 11.2044 8 12 8C12.7956 8 13.5587 8.31607 14.1213 8.87868C14.6839 9.44129 15 10.2044 15 11Z" stroke="#1E84EF" stroke-width="1.5" stroke-linecap="round" stroke-linejoin="round"/>
</svg>
